<!DOCTYPE svg PUBLIC "-//W3C//DTD SVG 1.1//EN" "http://www.w3.org/Graphics/SVG/1.1/DTD/svg11.dtd">
<!-- Uploaded to: SVG Repo, www.svgrepo.com, Transformed by: SVG Repo Mixer Tools -->
<svg fill="#ffbd00" height="256px" width="256px" version="1.1" id="Layer_1" xmlns="http://www.w3.org/2000/svg" xmlns:xlink="http://www.w3.org/1999/xlink" viewBox="-15.33 -15.33 541.71 541.71" xml:space="preserve" stroke="#ffbd00" stroke-width="22.997025">
<g id="SVGRepo_bgCarrier" stroke-width="0"/>
<g id="SVGRepo_tracerCarrier" stroke-linecap="round" stroke-linejoin="round" stroke="#CCCCCC" stroke-width="4.08836"/>
<g id="SVGRepo_iconCarrier"> <g transform="translate(1)"> <g> <g> <path d="M475.059,72.483c-34.987-36.693-71.68-55.467-111.787-55.467c-44.373,0-85.333,27.307-109.227,72.533 c-23.04-45.227-64-72.533-108.373-72.533c-39.253,0-75.947,17.92-111.787,55.467c-40.107,42.667-58.027,140.8,15.36,214.187 c34.987,34.987,197.973,203.093,199.68,204.8s3.413,2.56,5.973,2.56c1.707,0,4.267-0.853,5.973-2.56 s163.84-169.813,198.827-204.8c41.813-42.667,50.347-87.893,50.347-118.613C510.045,131.363,496.392,95.523,475.059,72.483z M447.752,274.723c-30.72,30.72-162.987,167.253-192.853,198.827c-29.867-30.72-162.133-168.107-192.853-198.827 c-65.707-65.707-51.2-152.747-15.36-190.293c31.573-34.133,64-50.347,98.987-50.347c42.667,0,81.067,30.72,100.693,79.36 c0.853,2.56,4.267,5.12,7.68,5.12c3.413,0,6.827-1.707,7.68-5.12c19.627-48.64,58.027-79.36,101.547-79.36 c34.987,0,68.267,17.067,99.84,50.347C498.099,121.976,512.605,209.869,447.752,274.723z"/> <path d="M377.779,169.763c-5.128,0-9.997,1.369-14.262,3.749c-3.929-11.937-15.332-20.816-28.405-20.816 c-16.213,0-29.867,13.653-29.867,29.867v13.653h-102.4v-13.653c0-16.213-13.653-29.867-29.867-29.867 c-13.073,0-24.476,8.878-28.405,20.816c-4.265-2.38-9.134-3.749-14.262-3.749c-16.213,0-29.867,13.653-29.867,29.867v42.667 c0,16.213,13.653,29.867,29.867,29.867c5.148,0,10.036-1.294,14.312-3.602c3.974,11.863,15.336,20.669,28.354,20.669 c16.213,0,29.867-12.8,29.867-29.867v-11.947h102.4v11.947c0,16.213,13.653,29.867,29.867,29.867 c13.17,0,24.65-8.445,28.496-20.762c4.242,2.349,9.08,3.696,14.17,3.696c16.213,0,29.867-12.8,29.867-29.867v-42.667 C407.645,183.416,393.992,169.763,377.779,169.763z M130.312,255.096c-6.827,0-12.8-5.973-12.8-12.8v-42.667 c0-6.827,5.973-12.8,12.8-12.8c6.827,0,12.8,5.973,12.8,12.8v42.667C143.112,249.123,137.139,255.096,130.312,255.096z M185.779,259.363c0,6.827-5.973,12.8-12.8,12.8s-12.8-5.973-12.8-12.8v-17.067v-42.667v-17.067c0-6.827,5.973-12.8,12.8-12.8 s12.8,5.973,12.8,12.8v22.187v34.133V259.363z M202.845,230.349v-17.067h102.4v17.067H202.845z M347.912,259.363 c0,6.827-5.973,12.8-12.8,12.8s-12.8-5.973-12.8-12.8v-20.48v-34.133v-22.187c0-6.827,5.973-12.8,12.8-12.8s12.8,5.973,12.8,12.8 v17.067v42.667V259.363z M390.579,242.296c0,6.827-5.973,12.8-12.8,12.8s-12.8-5.973-12.8-12.8v-42.667 c0-6.827,5.973-12.8,12.8-12.8s12.8,5.973,12.8,12.8V242.296z"/> </g> </g> </g> </g>
</svg>