<svg xmlns="http://www.w3.org/2000/svg" xml:space="preserve" id="muscles-treatment" x="0" y="0" enable-background="new 0 0 64 64" version="1.1" viewBox="0 0 64 64" fill="currentColor">
  <path d="M0.97,61.84c-0.18,0-0.37-0.05-0.53-0.16C0.17,61.51,0,61.2,0,60.87V22.7c0-0.44,0.29-0.82,0.71-0.94
			c0.16-0.04,16.36-4.3,25.74,8c1.37-0.67,4.32-1.77,7.94-0.97c3.94,0.87,7.46,3.72,10.46,8.45l1.44-0.04
			c-0.88-2.88-2.82-10.32-2.58-19.07c-1.12-0.03-2.8-0.26-3.72-1.31c-1.77-0.04-7.02-0.71-9.57-7.01c-0.45-1.1-0.2-2.43,0.62-3.41
			c0.48-0.57,1.12-0.95,1.82-1.12c0.02-0.26,0.12-0.54,0.29-0.8l0.22-0.32c0.18-0.27,0.37-0.54,0.54-0.79
			c0.58-0.88,1.64-1.35,2.69-1.19c1.3,0.18,3.24,0.54,4.94,1.22c0.73,0.3,1.39,0.5,2.01,0.61c1.84,0.33,5.31,1.93,7.86,8.98
			c0.01,0.04,0.7,2.08,1.62,4.29c1.06,2.57,2.04,4.39,2.75,5.14c0.62,0.65,1.09,1.23,1.45,1.85c0.34,0.58,0.77,1.31,1.24,2.21
			c1.52,2.83,3.58,7.3,4.72,12.51c0.32,1.47,0.55,2.92,0.68,4.31c0.04,0.52,0.08,1,0.1,1.48c0.02,0.58-0.03,1.15-0.15,1.68
			c-0.07,0.31-0.16,0.6-0.27,0.88c-0.05,0.14-0.11,0.29-0.19,0.44c-0.12,0.24-0.25,0.47-0.39,0.69c-0.02,0.03-0.03,0.06-0.05,0.09
			c-0.25,0.36-0.53,0.7-0.87,1.03c-0.31,0.31-0.68,0.6-1.1,0.85c-0.28,0.16-0.55,0.3-0.84,0.43c-6.81,2.82-20.07,7.18-32.44,4.68
			c-1.31-0.27-2.59-0.61-3.8-1.01c-1.16-0.39-2.26-0.84-3.29-1.33L1.36,61.76C1.24,61.82,1.1,61.84,0.97,61.84z M1.94,23.47v35.91
			l18.28-8.13c0.27-0.12,0.57-0.11,0.83,0.02c1.06,0.53,2.22,1.01,3.45,1.43c1.14,0.38,2.34,0.7,3.57,0.95
			c12.31,2.48,26-2.37,31.31-4.57c0.2-0.09,0.4-0.19,0.6-0.3c0.27-0.16,0.52-0.35,0.73-0.56c0.23-0.23,0.42-0.44,0.58-0.67
			c0.01-0.03,0.03-0.05,0.05-0.08c0.12-0.17,0.22-0.36,0.32-0.55c0.04-0.09,0.08-0.18,0.12-0.28c0.08-0.2,0.14-0.4,0.19-0.6
			c0.08-0.37,0.12-0.76,0.1-1.17c-0.02-0.45-0.05-0.9-0.09-1.36c-0.12-1.34-0.34-2.71-0.64-4.1c-1.15-5.25-3.34-9.78-4.54-12
			c-0.46-0.87-0.87-1.58-1.2-2.13c-0.29-0.48-0.67-0.96-1.19-1.5c-0.9-0.95-1.96-2.88-3.14-5.74c-0.96-2.28-1.64-4.32-1.66-4.4
			c-2.3-6.34-5.22-7.51-6.37-7.71c-0.76-0.13-1.55-0.37-2.4-0.73c-1.59-0.64-3.5-0.96-4.49-1.1c-0.32-0.05-0.63,0.09-0.81,0.36
			c-0.18,0.25-0.36,0.52-0.53,0.78l-0.07,0.11c1.35,0.44,2.28,1.74,2.31,3.23c0.01,0.51,0.3,0.96,0.75,1.2
			c2.43,1.33,3.48,1.56,3.88,1.59c-0.05-0.22-0.16-0.53-0.3-0.76c-0.26-0.47-0.1-1.06,0.37-1.32c0.46-0.26,1.05-0.1,1.32,0.37
			c0.19,0.34,1.11,2.1,0.09,3.14c-0.96,0.98-2.84,0.58-6.29-1.3c-1.06-0.57-1.74-1.66-1.76-2.83c-0.01-0.73-0.44-1.32-1.05-1.48
			c-0.95-0.22-1.49,0.21-1.72,0.49c-0.36,0.42-0.48,0.99-0.3,1.42c2.52,6.23,7.95,5.82,8.18,5.8c0.39-0.03,0.78,0.18,0.96,0.53
			c0.35,0.7,2.15,0.87,3.26,0.76c0.28-0.03,0.56,0.07,0.77,0.26c0.2,0.2,0.31,0.47,0.3,0.75c-0.01,0.16-0.02,0.33-0.02,0.49
			c-0.41,10.9,2.83,20.05,2.86,20.14c0.11,0.29,0.06,0.62-0.11,0.88c-0.18,0.26-0.46,0.41-0.77,0.42l-3.29,0.09
			c-0.34-0.01-0.67-0.17-0.85-0.46c-2.77-4.54-5.97-7.24-9.49-8.04c-4.09-0.92-7.26,1.11-7.29,1.14c-0.44,0.29-1.03,0.18-1.33-0.25
			C17.92,21,5.09,22.83,1.94,23.47z M34.68,5.28C34.68,5.28,34.68,5.28,34.68,5.28C34.68,5.28,34.68,5.28,34.68,5.28L34.68,5.28z"></path>
</svg>
