<svg xmlns="http://www.w3.org/2000/svg" viewBox="0 0 512 512" id="dumbbells">
  <g>
    <path d="M92.175 377.8a9.968 9.968 0 0 0 7.071-2.929l63.177-63.177a10 10 0 0 0 0-14.142l-16.155-16.156 85.577-85.577L248 211.973a10 10 0 0 0 14.143 0l43.344-43.345.012-.011.011-.012 19.808-19.809a10 10 0 0 0 0-14.141L247.277 56.612a10 10 0 0 0-14.142 0l-63.177 63.177a10 10 0 0 0 0 14.142l16.155 16.155-85.577 85.578L84.381 219.508a10 10 0 0 0-14.143 0L50.422 239.325l0 0 0 0L7.062 282.685a10 10 0 0 0 0 14.142L85.1 374.869A9.966 9.966 0 0 0 92.175 377.8zM57.489 260.542l63.9 63.9L112 333.835l-63.9-63.9zM191.172 126.86l5.678-5.678 63.9 63.9-5.678 5.677zm29.214-29.214l63.9 63.9-9.393 9.394-63.9-63.9zm83.719 44.079l-5.677 5.677-63.9-63.9 5.678-5.678zm-103.849 22.5L217.7 181.675l-85.578 85.577-17.445-17.446zM93.46 256.872l.005 0 0 0 31.578 31.578 0 0 .005.005 16.151 16.151-5.678 5.678-63.9-63.9 5.678-5.677zM33.953 284.078l63.9 63.9-5.678 5.678-63.9-63.9zM426.9 137.131a10 10 0 0 0-14.142 0l-63.177 63.177a10 10 0 0 0 0 14.142l16.155 16.156-85.577 85.577L264 300.027a10 10 0 0 0-14.143 0l-43.344 43.345-.012.011-.011.012-19.808 19.809a10 10 0 0 0 0 14.141l78.041 78.042a10 10 0 0 0 14.142 0l63.177-63.177a10 10 0 0 0 0-14.142l-16.155-16.155 85.577-85.578 16.155 16.156a10 10 0 0 0 14.143 0l19.816-19.817 0 0 0 0 43.353-43.353a10 10 0 0 0 0-14.142zm56.829 85.113l-5.678 5.678-63.9-63.9 5.678-5.678zm-29.214 29.214l-63.9-63.9 9.394-9.393 63.9 63.9zM320.828 385.14l-5.678 5.678-63.9-63.9 5.678-5.677zm-29.214 29.214l-63.9-63.9 9.393-9.394 63.9 63.9zM207.9 370.275l5.677-5.677 63.9 63.9-5.678 5.678zm103.849-22.5L294.3 330.325l85.578-85.577 17.445 17.446zm106.8-92.643l0 0-.005 0L386.952 223.54l0 0 0 0-16.151-16.151 5.678-5.678 63.9 63.9-5.678 5.677z"></path>
  </g>
</svg>
