<svg xmlns="http://www.w3.org/2000/svg" viewBox="0 0 64 64" id="list">
  <path fill="currentColo" d="M48 24H26c-.552 0-1-.448-1-1s.448-1 1-1h22c.552 0 1 .448 1 1s-.448 1-1 1zM48 28H26c-.552 0-1-.448-1-1s.448-1 1-1h22c.552 0 1 .448 1 1s-.448 1-1 1zM22 29h-6c-.552 0-1-.448-1-1v-6c0-.552.448-1 1-1h6c.552 0 1 .448 1 1v6c0 .552-.448 1-1 1zm-5-2h4v-4h-4v4zM48 35H26c-.552 0-1-.448-1-1s.448-1 1-1h22c.552 0 1 .448 1 1s-.448 1-1 1zM48 39H26c-.552 0-1-.448-1-1s.448-1 1-1h22c.552 0 1 .448 1 1s-.448 1-1 1zM22 40h-6c-.552 0-1-.448-1-1v-6c0-.552.448-1 1-1h6c.552 0 1 .448 1 1v6c0 .552-.448 1-1 1zm-5-2h4v-4h-4v4zM48 46H26c-.552 0-1-.448-1-1s.448-1 1-1h22c.552 0 1 .448 1 1s-.448 1-1 1zM48 50H26c-.552 0-1-.448-1-1s.448-1 1-1h22c.552 0 1 .448 1 1s-.448 1-1 1zM22 51h-6c-.552 0-1-.448-1-1v-6c0-.552.448-1 1-1h6c.552 0 1 .448 1 1v6c0 .552-.448 1-1 1zm-5-2h4v-4h-4v4z" class="color231f20 svgShape"></path>
  <path fill="currentColo" d="M55.987,14.937c-.006-.088-.023-.173-.051-.257-.011-.032-.019-.063-.034-.094-.049-.106-.11-.207-.196-.293L42.707,1.293c-.086-.086-.188-.148-.294-.197-.029-.013-.059-.021-.09-.032-.086-.03-.173-.047-.263-.052-.021-.001-.039-.012-.06-.012H11c-1.654,0-3,1.346-3,3V60c0,1.654,1.346,3,3,3H53c1.654,0,3-1.346,3-3V15c0-.022-.011-.041-.013-.063Zm-3.402-.937h-8.586c-.551,0-1-.449-1-1V4.414l9.586,9.586Zm.414,47H11c-.551,0-1-.449-1-1V4c0-.551,.449-1,1-1h30V13c0,1.654,1.346,3,3,3h10V60c0,.551-.449,1-1,1Z" class="color231f20 svgShape"></path>
</svg>
