<svg xmlns="http://www.w3.org/2000/svg" xml:space="preserve" id="Notes" x="0" y="0" version="1.1" viewBox="0 0 101 101">
  <path d="M82.2 23.4h-12v-2c0-1.3-1.1-2.4-2.4-2.4-1.3 0-2.4 1.1-2.4 2.4v2H35.9v-2c0-1.3-1.1-2.4-2.4-2.4s-2.4 1.1-2.4 2.4v2H18.8c-1.3 0-2.4 1.1-2.4 2.4v53.8c0 1.3 1.1 2.4 2.4 2.4h63.4c1.3 0 2.4-1.1 2.4-2.4V25.8c0-1.3-1.1-2.4-2.4-2.4zm-51.1 4.8v1.3c0 1.3 1.1 2.4 2.4 2.4s2.4-1.1 2.4-2.4v-1.3h29.5v1.3c0 1.3 1.1 2.4 2.4 2.4 1.3 0 2.4-1.1 2.4-2.4v-1.3h9.5v6.2H21.2v-6.2h9.9zm-9.9 49V39.3h58.6v37.9H21.2z" fill="currentColor" class="color000000 svgShape"></path>
  <path d="M67.8 50.3H33.2c-1.3 0-2.4 1.1-2.4 2.4s1.1 2.4 2.4 2.4h34.7c1.3 0 2.4-1.1 2.4-2.4s-1.1-2.4-2.5-2.4zM50.5 62H33.2c-1.3 0-2.4 1.1-2.4 2.4 0 1.3 1.1 2.4 2.4 2.4h17.3c1.3 0 2.4-1.1 2.4-2.4 0-1.4-1.1-2.4-2.4-2.4z" fill="#000000" class="color000000 svgShape"></path>
</svg>
