<svg xmlns="http://www.w3.org/2000/svg" viewBox="0 0 379.905 379.905" id="whey-protein">
  <path d="M342.498 113.207a4.914 4.914 0 0 0-.619-.533L282.954 69.77V57.404h10.552a5 5 0 0 0 5-5V5a5 5 0 0 0-5-5h-150.86a5 5 0 0 0-5 5v47.404a5 5 0 0 0 5 5h8.764v13.88l-57.127 41.382a5.052 5.052 0 0 0-.628.54c-6.876 6.979-10.662 16.218-10.662 26.017v103.822h-9.654a36.764 36.764 0 0 0-34.615 24.191h-6.977a5.001 5.001 0 0 0-4.955 5.671l13.897 102.668a5 5 0 0 0 4.955 4.329h104.055a5 5 0 0 0 4.951-4.304l.537-3.816H317.85c19.47 0 35.31-15.84 35.31-35.31V139.221c-.001-9.795-3.787-19.034-10.662-26.014zm-57.676 154.03h-54.625c-13.508-17.346-32.987-40.033-38.026-45.871v-34.18a6.262 6.262 0 0 1 6.255-6.255h26.497a6.262 6.262 0 0 1 6.255 6.255v19.531c0 3.341-1.461 6.517-4.008 8.713a5.002 5.002 0 0 0 .914 8.2c10.088 5.374 24.711 14.254 37.088 26.042a5.002 5.002 0 0 0 4.585 1.249l.977-.228a5 5 0 0 0 3.555-3.139c3.373-9.146 12.191-15.291 21.943-15.291 2.978 0 5.889.559 8.65 1.66a4.998 4.998 0 0 0 6.463-2.713c5.56-13.271 17.761-22.284 31.814-23.852v78.24h-59.178c3.486-4.026 5.841-8.758 5.841-13.361a5 5 0 0 0-5-5zM92.992 163.523h250.167v33.792a49.106 49.106 0 0 0-39.071 25.883 33.238 33.238 0 0 0-7.856-.935c-11.785 0-22.617 6.289-28.585 16.141-9.974-8.696-20.742-15.655-29.521-20.657a21.444 21.444 0 0 0 3.053-11.03v-19.531c0-8.963-7.292-16.255-16.255-16.255h-26.497c-8.963 0-16.255 7.292-16.255 16.255v36.042c0 1.205.435 2.369 1.225 3.278.217.25 19.08 21.993 34.06 40.73h-58.598v-2.581c0-21.753-17.697-39.45-39.45-39.45a39.445 39.445 0 0 0-26.415 10.166v-71.848zm175.601 132.075h74.567v8.195H164.746l1.079-7.678h98.864c1.249 0 2.562-.183 3.904-.517zM173.075 47.404V10h23.334v37.404h-23.334zM206.409 10h23.333v37.404h-23.333V10zm33.333 0h23.333v37.404h-23.333V10zm48.764 37.404h-15.431V10h15.431v37.404zM147.646 10h15.43v37.404h-15.43V10zM100.5 120.511l58.843-42.625a4.999 4.999 0 0 0 2.066-4.049V57.404h111.545v14.91a5 5 0 0 0 2.057 4.042l60.637 44.15c4.848 5.063 7.512 11.693 7.512 18.717v14.3H92.992v-14.3c0-7.022 2.663-13.651 7.508-18.712zM73.338 253.045h15.887a5 5 0 0 0 4.378-2.585 29.48 29.48 0 0 1 25.805-15.254c16.239 0 29.45 13.211 29.45 29.45v2.581H49.643a26.797 26.797 0 0 1 23.695-14.192zm72.015 116.86h-95.34l-4.148-30.641h31.108v-10H44.511l-2.906-21.472h36.368v-10H40.251l-2.782-20.556H277.89c-3.044 4.459-9.034 8.878-13.2 8.878H161.48a5 5 0 0 0-4.951 4.304l-11.176 79.487zm172.497-8.12H156.592l6.748-47.993h179.819v22.683c0 13.956-11.353 25.31-25.309 25.31z"></path>
</svg>
